# xmcd
#
# Track frame offsets:
#	150
#	16644
#	32176
#	48204
#	65161
#	80740
#	97530
#	112687
#	128986
#	145320
#	157783
#
# Disc length: 2362 seconds
#
# Revision: 0
# Processed by: cddbd v1.5.2PL0 Copyright (c) Steve Scherf et al.
# Submitted via: audiograbber 1.83.01
#
DISCID=7e09380b
DTITLE=Kortney Kayle - No turning Back
DYEAR=2001
DGENRE=Country
TTITLE0=Don't Let me Down
TTITLE1=You Got My Love
TTITLE2=Jump
TTITLE3=Fallin' Fast
TTITLE4=Something To Cry About
TTITLE5=I Say Hello
TTITLE6=Yeah, Right
TTITLE7=Soul Mates
TTITLE8=Not This Girl
TTITLE9=Unbroken By You
TTITLE10=Dancing With Angels
EXTD=
EXTT0=
EXTT1=
EXTT2=
EXTT3=
EXTT4=
EXTT5=
EXTT6=
EXTT7=
EXTT8=
EXTT9=
EXTT10=
PLAYORDER=
